<svg xmlns="http://www.w3.org/2000/svg" xmlns:xlink="http://www.w3.org/1999/xlink" width="80" height="48" viewBox="0 0 80 48">
    <defs>
        <path id="a" d="M0 .342h79.887v47.255H0z"/>
    </defs>
    <g fill="none" fill-rule="evenodd">
        <g transform="translate(0 .062)">
            <mask id="b" fill="#fff">
                <use xlink:href="#a"/>
            </mask>
            <path fill="#FA0236" d="M8.346 47.584l64.756-4.683c2.374-.171 4.268-2.066 4.461-4.462l2.308-28.735c.219-2.724-1.825-5.096-4.526-5.253L5.099.35C2.169.179-.232 2.671.018 5.626l3.18 37.517c.225 2.653 2.518 4.631 5.148 4.441" mask="url(#b)"/>
        </g>
        <path fill="#FFF" d="M36.628 29.882h-1.004c-.996 0-1.721-.819-1.62-1.83l.861-8.604a.604.604 0 0 1 .584-.537h.81c1.064 0 1.84.876 1.731 1.955l-.856 8.55a.524.524 0 0 1-.506.466M34.954 16.68c0-.456.167-.814.503-1.076.335-.262.786-.393 1.352-.393.497 0 .858.1 1.084.3.225.199.338.463.338.793 0 .42-.159.77-.477 1.05-.318.278-.783.418-1.396.418-.936 0-1.404-.364-1.404-1.093M30.09 18.808c-1.1 0-2.41.184-3.212 1.008-.716.735-1.044 1.807-1.21 2.795 0 0-.107-2.114 1.108-3.782l.177-1.757c.103-1.004-.633-1.818-1.644-1.818h-1.22c-.174 0-.329.14-.347.314l-1.269 12.416c-.107 1.048.661 1.898 1.717 1.898h1.066a.438.438 0 0 0 .427-.385l.542-5.302h.006c.167-1.627.873-2.735 2.242-2.735.71 0 1.246.489 1.153 1.392l-.545 5.326c-.096.94.594 1.704 1.541 1.704h1.279a.42.42 0 0 0 .408-.369l.681-6.66c.267-2.607-1.07-4.045-2.9-4.045M45.842 24.682c-.173 1.716-1.142 3.107-2.164 3.107-1.022 0-1.71-1.391-1.536-3.107.173-1.716 1.142-3.107 2.164-3.107 1.022 0 1.71 1.391 1.536 3.107m-.101-5.747c-1.097.007-2.23.67-2.999 1.717.103-1.015-.628-1.741-1.639-1.741h-1.22a.358.358 0 0 0-.347.317L38.133 33.08c-.107 1.062.661 1.921 1.717 1.921h1.067a.44.44 0 0 0 .426-.389l.582-4.595c-.974-1.412-.787-3.642-.787-3.642.016.493.197.99.375 1.444.266.681.598 1.283 1.166 1.756a3.012 3.012 0 0 0 1.915.715c2.612 0 4.45-2.69 4.762-5.773.311-3.083-.64-5.602-3.615-5.582M53.537 24.084s.269-1.611.807-2.108c.54-.496 1.26-.583 1.7-.086.439.496.107 1.232-.432 1.729-.539.496-2.075.465-2.075.465m6.057-2.09c.153-1.532-.82-3.083-4-3.083-2.675 0-5.09 2.456-5.393 5.486-.303 3.03.45 5.485 4.296 5.485 1.421 0 3.876-.162 4.026-1.666.006-.054.009-.107.01-.157.022-.983-1.085-1.504-1.905-.888-.325.243-.854.515-1.693.469-1.579-.088-1.502-1.58-1.5-1.603-1.499-.32-2.467-1.04-2.467-1.04 1.355.72 3.15.686 3.15.686 4.05.07 5.33-2.237 5.476-3.69M67.384 18.942c-.716-.054-1.425.196-1.983.63-1.245.971-1.448 2.545-1.516 3.921-.474-1.901.287-3.058.488-3.534-.42-.596-.894-.987-1.726-1.04-.567-.035-1.351.013-1.426.72l-.873 8.335c-.11 1.054.682 1.908 1.77 1.908h.936a.562.562 0 0 0 .553-.486l.321-3.061c.28-1.91.507-4.696 1.611-4.696.696 0 .694.54.578 1.682a.406.406 0 0 0 .374.45c.065.007.129.012.18.012 1.487 0 2.803-1.256 2.77-2.732-.024-1.126-.898-2.021-2.057-2.109M21.822 17.524a3.012 3.012 0 0 0-.864-1.153c-.39-.327-.884-.584-1.48-.772a4.823 4.823 0 0 0-.35-.094c.04-.491.012-1.09-.15-1.49-.197-.484-.687-.766-1.47-.845l-1.058-.108c-.206-.02-.33.1-.372.364-.037.228-.207 1.002-.294 1.46 2.095-.043 2.957.545 2.957.545-1.267-.22-2.49-.051-2.865.011a5.98 5.98 0 0 0-1.009.264l-.116.043c-.733.288-1.353.666-1.86 1.133a6.13 6.13 0 0 0-1.243 1.595 9.165 9.165 0 0 0-.75 1.815 10.383 10.383 0 0 0-.36 1.795 14.748 14.748 0 0 0-.093 1.534c0 1.23.172 2.252.514 3.068.342.815.788 1.464 1.336 1.945.39.342.818.612 1.284.812l.033.014c.179.076.363.142.553.196.226.065.451.118.676.162a8.87 8.87 0 0 0 1.12.101s-1.126.33-2.63-.005c-.016.438.023.855.162 1.196.199.485.697.77 1.494.852l1.078.111c.209.023.335-.099.379-.363.047-.282.296-1.548.341-1.77.126-.007.25-.017.37-.03 1.532-.168 3.273-1.147 3.893-2.585.16-.37.174-.755.042-1.155-.1-.304-.253-.53-.458-.68a1.803 1.803 0 0 0-1.25-.35 2.45 2.45 0 0 0-.39.064.462.462 0 0 0-.313.292c-.053.146-.12.312-.2.497-.08.185-.203.368-.37.55-.166.181-.433.33-.801.445-.222.07-.43.109-.625.12a1.699 1.699 0 0 1-1.125-.322c-.5-.363-.794-.976-.99-1.581a5.272 5.272 0 0 1-.2-.874c-.086-.599-.084-1.211-.049-1.814a7.83 7.83 0 0 1 .144-1.082 7.71 7.71 0 0 1 .309-1.103 3.828 3.828 0 0 1 .513-.973 2.59 2.59 0 0 1 .781-.702c.309-.18.682-.27 1.12-.27.302 0 .538.05.71.15a.79.79 0 0 1 .207.177c.07.084.129.185.173.304.082.22.13.498.144.833.013.334.027.728.041 1.182 0 .148.038.245.113.292.075.046.264.07.565.07.946 0 1.675-.197 2.19-.592.513-.394.77-1.02.77-1.875 0-.495-.093-.963-.277-1.404"/>
    </g>
</svg>
