<svg xmlns="http://www.w3.org/2000/svg" width="60" height="60" viewBox="0 0 60 60">
    <defs>
        <linearGradient id="prefix__a" x1="11.328%" x2="83.2%" y1="-29.781%" y2="100%">
            <stop offset="0%" stop-color="#DE002E"/>
            <stop offset="100%" stop-color="#FF0136"/>
        </linearGradient>
    </defs>
    <g fill="none" fill-rule="evenodd">
        <rect width="59.642" height="59.642" fill="url(#prefix__a)" fill-rule="nonzero" rx="10"/>
        <path fill="#FFF" d="M42.87 17.85c-.434-1.048-1.11-1.96-2.029-2.737-.918-.777-2.08-1.388-3.48-1.832-.265-.084-.54-.158-.824-.225.094-1.165.03-2.586-.354-3.536-.462-1.147-1.613-1.818-3.454-2.005l-2.49-.256c-.484-.05-.775.239-.874.864-.086.54-.486 2.377-.692 3.464 4.927-.102 6.953 1.294 6.953 1.294-2.978-.52-5.853-.12-6.737.028-.846.15-1.639.356-2.371.626-.091.033-.183.067-.272.102-1.725.683-3.184 1.58-4.375 2.69-1.192 1.111-2.167 2.372-2.924 3.784-.757 1.412-1.346 2.848-1.764 4.307-.419 1.46-.701 2.88-.845 4.26-.146 1.38-.219 2.594-.219 3.641 0 2.92.404 5.347 1.209 7.283.805 1.935 1.852 3.474 3.141 4.616.916.812 1.924 1.453 3.02 1.929.026.01.05.023.076.033.421.18.855.336 1.302.465.53.155 1.06.28 1.59.383.76.122 1.633.211 2.632.242 0 0-2.646.782-6.182-.014-.04 1.04.053 2.029.38 2.839.467 1.152 1.638 1.826 3.512 2.022l2.535.265c.491.053.789-.236.891-.862.111-.669.697-3.675.803-4.2.296-.018.586-.042.87-.072 3.603-.4 7.697-2.724 9.155-6.136.374-.878.407-1.791.097-2.742-.234-.721-.594-1.258-1.075-1.612-.483-.355-.983-.594-1.5-.72-.52-.125-1-.163-1.443-.114-.443.05-.747.1-.913.153-.366.116-.612.348-.738.694-.125.347-.282.74-.47 1.179-.186.438-.477.875-.868 1.305-.392.431-1.02.783-1.886 1.056-.522.165-1.011.259-1.47.287-.304.018-.595.006-.87-.035-.692-.106-1.277-.365-1.775-.73-1.174-.862-1.866-2.316-2.328-3.753-.218-.679-.369-1.373-.47-2.075-.203-1.42-.198-2.875-.114-4.304.048-.824.16-1.681.338-2.57.177-.888.419-1.761.725-2.618.27-.756.616-1.445 1.039-2.066.055-.081.111-.163.17-.242.498-.682 1.111-1.237 1.836-1.666.725-.428 1.603-.642 2.634-.642.708 0 1.264.118 1.667.357.185.109.347.25.489.42.166.199.301.44.405.722.194.523.307 1.182.34 1.976.03.792.064 1.729.096 2.807 0 .35.088.58.265.691.177.111.62.166 1.33.166 2.223 0 3.938-.468 5.147-1.404 1.208-.935 1.811-2.42 1.811-4.45 0-1.174-.217-2.285-.651-3.332"/>
    </g>
</svg>
